<svg
 xmlns="http://www.w3.org/2000/svg"
 xmlns:xlink="http://www.w3.org/1999/xlink"
 width="229px" height="40px">
<path fill-rule="evenodd"  fill="rgb(126, 126, 126)"
 d="M225.714,34.514 C226.660,35.268 227.518,35.644 228.290,35.644 L228.710,35.644 L228.710,40.007 L224.295,40.007 C221.911,40.007 219.861,39.149 218.145,37.432 C216.427,35.715 215.569,33.647 215.569,31.229 L215.569,13.725 L211.154,13.725 L211.154,9.363 L215.569,9.363 L215.569,0.585 L224.295,0.585 L224.295,9.363 L228.710,9.363 L228.710,13.725 L224.295,13.725 L224.295,31.229 C224.295,32.666 224.768,33.761 225.714,34.514 ZM194.938,19.376 C194.079,20.235 193.650,21.277 193.650,22.504 L193.650,40.007 L184.872,40.007 L184.872,9.363 L193.650,9.363 L193.650,18.088 C194.000,15.180 194.903,12.999 196.357,11.544 C197.811,10.090 199.835,9.363 202.428,9.363 L206.791,9.363 L206.791,18.088 L198.013,18.088 C196.821,18.088 195.796,18.518 194.938,19.376 ZM167.368,35.644 C167.018,38.554 165.546,40.007 162.953,40.007 L158.590,40.007 C156.207,40.007 154.149,39.149 152.414,37.432 C150.679,35.715 149.812,33.647 149.812,31.229 C149.812,28.847 150.679,26.797 152.414,25.079 C154.149,23.363 156.207,22.504 158.590,22.504 L167.368,22.504 L167.368,18.088 C167.368,16.897 166.939,15.872 166.081,15.013 C165.221,14.155 164.179,13.725 162.953,13.725 L158.590,13.725 C155.997,13.725 154.543,15.180 154.227,18.088 L149.812,18.088 C150.513,12.272 153.439,9.363 158.590,9.363 L167.368,9.363 C169.751,9.363 171.801,10.222 173.518,11.938 C175.235,13.656 176.094,15.706 176.094,18.088 L176.094,40.007 L167.368,40.007 L167.368,35.644 ZM167.368,26.866 L162.953,26.866 C161.761,26.866 160.736,27.296 159.878,28.154 C159.019,29.013 158.590,30.038 158.590,31.229 C158.590,32.421 159.019,33.455 159.878,34.330 C160.736,35.207 161.761,35.644 162.953,35.644 C164.179,35.644 165.221,35.207 166.081,34.330 C166.939,33.455 167.368,32.421 167.368,31.229 L167.368,26.866 ZM130.521,37.432 C128.804,35.715 127.946,33.647 127.946,31.229 L127.946,13.725 L123.530,13.725 L123.530,9.363 L127.946,9.363 L127.946,0.585 L136.671,0.585 L136.671,9.363 L141.087,9.363 L141.087,13.725 L136.671,13.725 L136.671,31.229 C136.671,32.666 137.144,33.761 138.090,34.514 C139.037,35.268 139.895,35.644 140.666,35.644 L141.087,35.644 L141.087,40.007 L136.671,40.007 C134.288,40.007 132.238,39.149 130.521,37.432 ZM114.016,27.287 C114.542,28.514 114.805,29.828 114.805,31.229 C114.805,33.647 113.946,35.715 112.229,37.432 C110.512,39.149 108.444,40.007 106.027,40.007 L101.664,40.007 C95.811,40.007 92.886,37.082 92.886,31.229 L97.301,31.229 C97.651,34.173 99.018,35.644 101.401,35.644 C102.978,35.644 104.152,35.338 104.923,34.725 C105.693,34.112 106.079,33.192 106.079,31.965 C106.079,30.739 103.959,28.987 99.719,26.709 C96.250,24.852 94.243,23.310 93.700,22.083 C93.157,20.857 92.886,19.543 92.886,18.141 C92.886,15.723 93.753,13.656 95.488,11.938 C97.222,10.222 99.280,9.363 101.664,9.363 L106.027,9.363 C111.528,9.363 114.454,12.272 114.805,18.088 L110.442,18.088 C110.056,15.180 108.672,13.725 106.289,13.725 C104.747,13.725 103.591,14.033 102.820,14.645 C102.049,15.259 101.664,16.161 101.664,17.352 C101.664,18.614 103.784,20.384 108.024,22.661 C111.493,24.519 113.491,26.061 114.016,27.287 ZM62.241,22.504 L84.160,22.504 L84.160,26.866 L62.241,26.866 L62.241,22.504 ZM44.737,40.007 L35.959,40.007 C30.808,40.007 27.882,37.082 27.181,31.229 L31.596,31.229 C31.807,34.173 33.260,35.644 35.959,35.644 L40.322,35.644 C41.548,35.644 42.590,35.216 43.450,34.357 C44.308,33.498 44.737,32.456 44.737,31.229 L44.737,22.504 C44.737,21.803 44.369,20.892 43.633,19.770 C42.898,18.649 41.794,18.088 40.322,18.088 L31.596,18.088 L31.596,13.725 L44.737,4.947 L27.181,4.947 L27.181,0.585 L53.463,0.585 L53.463,4.947 L40.322,13.725 L44.737,13.725 C47.260,13.725 49.345,14.690 50.992,16.616 C52.639,18.544 53.463,20.506 53.463,22.504 L53.463,31.229 C53.463,33.647 52.604,35.715 50.887,37.432 C49.170,39.149 47.120,40.007 44.737,40.007 ZM15.223,6.130 C14.434,6.918 14.040,7.856 14.040,8.942 L14.040,9.363 L18.456,9.363 L18.456,13.725 L14.040,13.725 L14.040,40.007 L5.315,40.007 L5.315,13.725 L0.899,13.725 L0.899,9.363 L5.315,9.363 L5.315,8.942 C5.315,6.665 6.138,4.703 7.785,3.055 C9.432,1.408 11.394,0.585 13.672,0.585 L22.818,0.585 L22.818,4.947 L18.035,4.947 C16.948,4.947 16.011,5.342 15.223,6.130 Z"/>
</svg>
