<?xml version="1.0" encoding="UTF-8"?>
<svg xmlns="http://www.w3.org/2000/svg" style="display: none;">
	<symbol id="arrow-left" viewBox="0 0 448 512"><path d="M447.1 256C447.1 273.7 433.7 288 416 288H109.3l105.4 105.4c12.5 12.5 12.5 32.75 0 45.25C208.4 444.9 200.2 448 192 448s-16.38-3.125-22.62-9.375l-160-160c-12.5-12.5-12.5-32.75 0-45.25l160-160c12.5-12.5 32.75-12.5 45.25 0s12.5 32.75 0 45.25L109.3 224H416C433.7 224 447.1 238.3 447.1 256z"></path></symbol>
	<symbol id="arrow-right" viewBox="0 0 448 512"><path d="M438.6 278.6l-160 160C272.4 444.9 264.2 448 256 448s-16.38-3.125-22.62-9.375c-12.5-12.5-12.5-32.75 0-45.25L338.8 288H32C14.33 288 .0016 273.7 .0016 256S14.33 224 32 224h306.8l-105.4-105.4c-12.5-12.5-12.5-32.75 0-45.25s32.75-12.5 45.25 0l160 160C451.1 245.9 451.1 266.1 438.6 278.6z"></path></symbol>
	<symbol id="asterisk" viewBox="0 0 448 512"><path d="M417.1 368c-5.937 10.27-16.69 16-27.75 16c-5.422 0-10.92-1.375-15.97-4.281L256 311.4V448c0 17.67-14.33 32-31.1 32S192 465.7 192 448V311.4l-118.3 68.29C68.67 382.6 63.17 384 57.75 384c-11.06 0-21.81-5.734-27.75-16c-8.828-15.31-3.594-34.88 11.72-43.72L159.1 256L41.72 187.7C26.41 178.9 21.17 159.3 29.1 144C36.63 132.5 49.26 126.7 61.65 128.2C65.78 128.7 69.88 130.1 73.72 132.3L192 200.6V64c0-17.67 14.33-32 32-32S256 46.33 256 64v136.6l118.3-68.29c3.838-2.213 7.939-3.539 12.07-4.051C398.7 126.7 411.4 132.5 417.1 144c8.828 15.31 3.594 34.88-11.72 43.72L288 256l118.3 68.28C421.6 333.1 426.8 352.7 417.1 368z"></path></symbol>
	<symbol id="bars" viewBox="0 0 448 512"><path d="M0 96C0 78.33 14.33 64 32 64H416C433.7 64 448 78.33 448 96C448 113.7 433.7 128 416 128H32C14.33 128 0 113.7 0 96zM0 256C0 238.3 14.33 224 32 224H316C333.7 224 348 238.3 348 256C348 273.7 333.7 288 316 288H32C14.33 288 0 273.7 0 256zM416 448H32C14.33 448 0 433.7 0 416C0 398.3 14.33 384 32 384H416C433.7 384 448 398.3 448 416C448 433.7 433.7 448 416 448z"></path></symbol>
	<symbol id="caret-down" viewBox="0 0 320 512"><path d="M137.4 374.6c12.5 12.5 32.8 12.5 45.3 0l128-128c9.2-9.2 11.9-22.9 6.9-34.9s-16.6-19.8-29.6-19.8L32 192c-12.9 0-24.6 7.8-29.6 19.8s-2.2 25.7 6.9 34.9l128 128z"/></symbol>
	<symbol id="caret-left" viewBox="0 0 256 512"><path d="M9.4 278.6c-12.5-12.5-12.5-32.8 0-45.3l128-128c9.2-9.2 22.9-11.9 34.9-6.9s19.8 16.6 19.8 29.6l0 256c0 12.9-7.8 24.6-19.8 29.6s-25.7 2.2-34.9-6.9l-128-128z"/></symbol>
	<symbol id="caret-right" viewBox="0 0 256 512"><path d="M246.6 278.6c12.5-12.5 12.5-32.8 0-45.3l-128-128c-9.2-9.2-22.9-11.9-34.9-6.9s-19.8 16.6-19.8 29.6l0 256c0 12.9 7.8 24.6 19.8 29.6s25.7 2.2 34.9-6.9l128-128z"></path></symbol>
	<symbol id="caret-up" viewBox="0 0 320 512"><path d="M182.6 137.4c-12.5-12.5-32.8-12.5-45.3 0l-128 128c-9.2 9.2-11.9 22.9-6.9 34.9s16.6 19.8 29.6 19.8H288c12.9 0 24.6-7.8 29.6-19.8s2.2-25.7-6.9-34.9l-128-128z"/></symbol>
	<symbol id="chevron-down" viewBox="0 0 448 512"><path d="M224 416c-8.188 0-16.38-3.125-22.62-9.375l-192-192c-12.5-12.5-12.5-32.75 0-45.25s32.75-12.5 45.25 0L224 338.8l169.4-169.4c12.5-12.5 32.75-12.5 45.25 0s12.5 32.75 0 45.25l-192 192C240.4 412.9 232.2 416 224 416z"></path></symbol>
	<symbol id="chevron-left" viewBox="0 0 320 512"><path d="M224 480c-8.188 0-16.38-3.125-22.62-9.375l-192-192c-12.5-12.5-12.5-32.75 0-45.25l192-192c12.5-12.5 32.75-12.5 45.25 0s12.5 32.75 0 45.25L77.25 256l169.4 169.4c12.5 12.5 12.5 32.75 0 45.25C240.4 476.9 232.2 480 224 480z"></path></symbol>
	<symbol id="chevron-right" viewBox="0 0 320 512"><path d="M96 480c-8.188 0-16.38-3.125-22.62-9.375c-12.5-12.5-12.5-32.75 0-45.25L242.8 256L73.38 86.63c-12.5-12.5-12.5-32.75 0-45.25s32.75-12.5 45.25 0l192 192c12.5 12.5 12.5 32.75 0 45.25l-192 192C112.4 476.9 104.2 480 96 480z"></path></symbol>
	<symbol id="chevron-up" viewBox="0 0 448 512"><path d="M416 352c-8.188 0-16.38-3.125-22.62-9.375L224 173.3l-169.4 169.4c-12.5 12.5-32.75 12.5-45.25 0s-12.5-32.75 0-45.25l192-192c12.5-12.5 32.75-12.5 45.25 0l192 192c12.5 12.5 12.5 32.75 0 45.25C432.4 348.9 424.2 352 416 352z"></path></symbol>
	<symbol id="chevrons-left" viewBox="0 0 512 512"><path stroke="null" id="svg_1" d="m256.12311,511.24768c-9.32567,0 -18.65591,-3.5592 -25.76292,-10.67761l-218.67757,-218.67755c-14.23682,-14.23685 -14.23682,-37.30049 0,-51.53732l218.67757,-218.67756c14.23685,-14.23682 37.30049,-14.23682 51.53734,0s14.23679,37.30047 0,51.53729l-192.91465,192.90892l192.93742,192.93738c14.23676,14.23682 14.23676,37.30051 0,51.53732c-7.11841,7.11838 -16.45776,10.64914 -25.79718,10.64914z"/><path stroke="null" id="svg_2" d="m475.38373,510.99753c-9.3165,0 -18.63754,-3.55573 -25.73758,-10.66718l-218.46211,-218.46213c-14.22279,-14.22281 -14.22279,-37.26373 0,-51.48656l218.46211,-218.46221c14.22281,-14.2228 37.26373,-14.2228 51.48654,0s14.22278,37.26373 0,51.48654l-192.72461,192.71891l192.74734,192.74741c14.22287,14.22278 14.22287,37.26373 0,51.48654c-7.11142,7.11133 -16.44153,10.63867 -25.7717,10.63867z"/></symbol>
	<symbol id="chevrons-right" viewBox="0 0 512 512"><path transform="rotate(180 146.801 256.124)" stroke="null" id="svg_1" d="m256.12311,511.24768c-9.32567,0 -18.65591,-3.5592 -25.76292,-10.67761l-218.67757,-218.67755c-14.23682,-14.23685 -14.23682,-37.30049 0,-51.53732l218.67757,-218.67756c14.23685,-14.23682 37.30049,-14.23682 51.53734,0s14.23679,37.30047 0,51.53729l-192.91465,192.90892l192.93742,192.93738c14.23676,14.23682 14.23676,37.30051 0,51.53732c-7.11841,7.11838 -16.45776,10.64914 -25.79718,10.64914z"/><path transform="rotate(180 366.17 256.125)" stroke="null" id="svg_2" d="m475.38373,510.99753c-9.3165,0 -18.63754,-3.55573 -25.73758,-10.66718l-218.46211,-218.46213c-14.22279,-14.22281 -14.22279,-37.26373 0,-51.48656l218.46211,-218.46221c14.22281,-14.2228 37.26373,-14.2228 51.48654,0s14.22278,37.26373 0,51.48654l-192.72461,192.71891l192.74734,192.74741c14.22287,14.22278 14.22287,37.26373 0,51.48654c-7.11142,7.11133 -16.44153,10.63867 -25.7717,10.63867z"/></symbol>
	<symbol id="circle-check" viewBox="0 0 512 512"><path d="M0 256C0 114.6 114.6 0 256 0C397.4 0 512 114.6 512 256C512 397.4 397.4 512 256 512C114.6 512 0 397.4 0 256zM371.8 211.8C382.7 200.9 382.7 183.1 371.8 172.2C360.9 161.3 343.1 161.3 332.2 172.2L224 280.4L179.8 236.2C168.9 225.3 151.1 225.3 140.2 236.2C129.3 247.1 129.3 264.9 140.2 275.8L204.2 339.8C215.1 350.7 232.9 350.7 243.8 339.8L371.8 211.8z"></path></symbol>
	<symbol id="circle-chevron-down" viewBox="0 0 512 512"><path d="M256 0C114.6 0 0 114.6 0 256c0 141.4 114.6 256 256 256s256-114.6 256-256C512 114.6 397.4 0 256 0zM390.6 246.6l-112 112C272.4 364.9 264.2 368 256 368s-16.38-3.125-22.62-9.375l-112-112c-12.5-12.5-12.5-32.75 0-45.25s32.75-12.5 45.25 0L256 290.8l89.38-89.38c12.5-12.5 32.75-12.5 45.25 0S403.1 234.1 390.6 246.6z"></path></symbol>
	<symbol id="circle-chevron-left" viewBox="0 0 512 512"><path d="M256 0C114.6 0 0 114.6 0 256c0 141.4 114.6 256 256 256s256-114.6 256-256C512 114.6 397.4 0 256 0zM310.6 345.4c12.5 12.5 12.5 32.75 0 45.25s-32.75 12.5-45.25 0l-112-112C147.1 272.4 144 264.2 144 256s3.125-16.38 9.375-22.62l112-112c12.5-12.5 32.75-12.5 45.25 0s12.5 32.75 0 45.25L221.3 256L310.6 345.4z"></path></symbol>
	<symbol id="circle-chevron-right" viewBox="0 0 512 512"><path d="M256 0C114.6 0 0 114.6 0 256c0 141.4 114.6 256 256 256s256-114.6 256-256C512 114.6 397.4 0 256 0zM358.6 278.6l-112 112c-12.5 12.5-32.75 12.5-45.25 0s-12.5-32.75 0-45.25L290.8 256L201.4 166.6c-12.5-12.5-12.5-32.75 0-45.25s32.75-12.5 45.25 0l112 112C364.9 239.6 368 247.8 368 256S364.9 272.4 358.6 278.6z"></path></symbol>
	<symbol id="circle-chevron-up" viewBox="0 0 512 512"><path d="M256 0C114.6 0 0 114.6 0 256c0 141.4 114.6 256 256 256s256-114.6 256-256C512 114.6 397.4 0 256 0zM390.6 310.6c-12.5 12.5-32.75 12.5-45.25 0L256 221.3L166.6 310.6c-12.5 12.5-32.75 12.5-45.25 0s-12.5-32.75 0-45.25l112-112C239.6 147.1 247.8 144 256 144s16.38 3.125 22.62 9.375l112 112C403.1 277.9 403.1 298.1 390.6 310.6z"></path></symbol>
	<symbol id="circle-dot" viewBox="0 0 512 512"><path d="M464 256A208 208 0 1 0 48 256a208 208 0 1 0 416 0zM0 256a256 256 0 1 1 512 0A256 256 0 1 1 0 256zm256-96a96 96 0 1 1 0 192 96 96 0 1 1 0-192z"/></symbol>
	<symbol id="circle-exclamation" viewBox="0 0 512 512"><path d="M256 0C114.6 0 0 114.6 0 256s114.6 256 256 256s256-114.6 256-256S397.4 0 256 0zM232 152C232 138.8 242.8 128 256 128s24 10.75 24 24v128c0 13.25-10.75 24-24 24S232 293.3 232 280V152zM256 400c-17.36 0-31.44-14.08-31.44-31.44c0-17.36 14.07-31.44 31.44-31.44s31.44 14.08 31.44 31.44C287.4 385.9 273.4 400 256 400z"></path></symbol>
	<symbol id="circle-info" viewBox="0 0 512 512"><path d="M256 512A256 256 0 1 0 256 0a256 256 0 1 0 0 512zM216 336h24V272H216c-13.3 0-24-10.7-24-24s10.7-24 24-24h48c13.3 0 24 10.7 24 24v88h8c13.3 0 24 10.7 24 24s-10.7 24-24 24H216c-13.3 0-24-10.7-24-24s10.7-24 24-24zm40-208a32 32 0 1 1 0 64 32 32 0 1 1 0-64z"></path></symbol>
	<symbol id="circle-notch" viewBox="0 0 512 512"><path d="M222.7 32.15C227.7 49.08 218.1 66.9 201.1 71.94C121.8 95.55 64 169.1 64 255.1C64 362 149.1 447.1 256 447.1C362 447.1 448 362 448 255.1C448 169.1 390.2 95.55 310.9 71.94C293.9 66.9 284.3 49.08 289.3 32.15C294.4 15.21 312.2 5.562 329.1 10.6C434.9 42.07 512 139.1 512 255.1C512 397.4 397.4 511.1 256 511.1C114.6 511.1 0 397.4 0 255.1C0 139.1 77.15 42.07 182.9 10.6C199.8 5.562 217.6 15.21 222.7 32.15V32.15z"></path></symbol>
	<symbol id="circle-play" viewBox="0 0 512 512"><path d="M0 256a256 256 0 1 1 512 0A256 256 0 1 1 0 256zM188.3 147.1c-7.6 4.2-12.3 12.3-12.3 20.9V344c0 8.7 4.7 16.7 12.3 20.9s16.8 4.1 24.3-.5l144-88c7.1-4.4 11.5-12.1 11.5-20.5s-4.4-16.1-11.5-20.5l-144-88c-7.4-4.5-16.7-4.7-24.3-.5z"/></symbol>
	<symbol id="circle-plus" viewBox="0 0 512 512"><path d="M256 512A256 256 0 1 0 256 0a256 256 0 1 0 0 512zM232 344V280H168c-13.3 0-24-10.7-24-24s10.7-24 24-24h64V168c0-13.3 10.7-24 24-24s24 10.7 24 24v64h64c13.3 0 24 10.7 24 24s-10.7 24-24 24H280v64c0 13.3-10.7 24-24 24s-24-10.7-24-24z"/></symbol>
	<symbol id="circle-question" viewBox="0 0 512 512"><path d="M256 512A256 256 0 1 0 256 0a256 256 0 1 0 0 512zM169.8 165.3c7.9-22.3 29.1-37.3 52.8-37.3h58.3c34.9 0 63.1 28.3 63.1 63.1c0 22.6-12.1 43.5-31.7 54.8L280 264.4c-.2 13-10.9 23.6-24 23.6c-13.3 0-24-10.7-24-24V250.5c0-8.6 4.6-16.5 12.1-20.8l44.3-25.4c4.7-2.7 7.6-7.7 7.6-13.1c0-8.4-6.8-15.1-15.1-15.1H222.6c-3.4 0-6.4 2.1-7.5 5.3l-.4 1.2c-4.4 12.5-18.2 19-30.6 14.6s-19-18.2-14.6-30.6l.4-1.2zM224 352a32 32 0 1 1 64 0 32 32 0 1 1 -64 0z"/></symbol>
	<symbol id="circle-solid" viewBox="0 0 512 512"><path d="M256 512A256 256 0 1 0 256 0a256 256 0 1 0 0 512z"/></symbol>
	<symbol id="circle-xmark" viewBox="0 0 512 512"><path d="M0 256C0 114.6 114.6 0 256 0C397.4 0 512 114.6 512 256C512 397.4 397.4 512 256 512C114.6 512 0 397.4 0 256zM175 208.1L222.1 255.1L175 303C165.7 312.4 165.7 327.6 175 336.1C184.4 346.3 199.6 346.3 208.1 336.1L255.1 289.9L303 336.1C312.4 346.3 327.6 346.3 336.1 336.1C346.3 327.6 346.3 312.4 336.1 303L289.9 255.1L336.1 208.1C346.3 199.6 346.3 184.4 336.1 175C327.6 165.7 312.4 165.7 303 175L255.1 222.1L208.1 175C199.6 165.7 184.4 165.7 175 175C165.7 184.4 165.7 199.6 175 208.1V208.1z"></path></symbol>
	<symbol id="circle" viewBox="0 0 512 512"><path d="M464 256A208 208 0 1 0 48 256a208 208 0 1 0 416 0zM0 256a256 256 0 1 1 512 0A256 256 0 1 1 0 256z"/></symbol>
	<symbol id="copy" viewBox="0 0 512 512"><path d="M502.6 70.63l-61.25-61.25C435.4 3.371 427.2 0 418.7 0H255.1c-35.35 0-64 28.66-64 64l.0195 256C192 355.4 220.7 384 256 384h192c35.2 0 64-28.8 64-64V93.25C512 84.77 508.6 76.63 502.6 70.63zM464 320c0 8.836-7.164 16-16 16H255.1c-8.838 0-16-7.164-16-16L239.1 64.13c0-8.836 7.164-16 16-16h128L384 96c0 17.67 14.33 32 32 32h47.1V320zM272 448c0 8.836-7.164 16-16 16H63.1c-8.838 0-16-7.164-16-16L47.98 192.1c0-8.836 7.164-16 16-16H160V128H63.99c-35.35 0-64 28.65-64 64l.0098 256C.002 483.3 28.66 512 64 512h192c35.2 0 64-28.8 64-64v-32h-47.1L272 448z"></path></symbol>
	<symbol id="dot" viewBox="0 0 16 16"><path d="M8 9.5a1.5 1.5 0 1 0 0-3 1.5 1.5 0 0 0 0 3"/></symbol>
	<symbol id="down-left-and-up-right-to-center" viewBox="0 0 512 512"><path d="M215.1 272h-136c-12.94 0-24.63 7.797-29.56 19.75C45.47 303.7 48.22 317.5 57.37 326.6l30.06 30.06l-78.06 78.07c-12.5 12.5-12.5 32.75-.0012 45.25l22.62 22.62c12.5 12.5 32.76 12.5 45.26 .0013l78.06-78.07l30.06 30.06c6.125 6.125 14.31 9.367 22.63 9.367c4.125 0 8.279-.7891 12.25-2.43c11.97-4.953 19.75-16.62 19.75-29.56V296C239.1 282.7 229.3 272 215.1 272zM296 240h136c12.94 0 24.63-7.797 29.56-19.75c4.969-11.97 2.219-25.72-6.938-34.87l-30.06-30.06l78.06-78.07c12.5-12.5 12.5-32.76 .0002-45.26l-22.62-22.62c-12.5-12.5-32.76-12.5-45.26-.0003l-78.06 78.07l-30.06-30.06c-9.156-9.141-22.87-11.84-34.87-6.937c-11.97 4.953-19.75 16.62-19.75 29.56v135.1C272 229.3 282.7 240 296 240z"></path></symbol>
	<symbol id="eye-slash" viewBox="0 0 640 512"><path d="M38.8 5.1C28.4-3.1 13.3-1.2 5.1 9.2S-1.2 34.7 9.2 42.9l592 464c10.4 8.2 25.5 6.3 33.7-4.1s6.3-25.5-4.1-33.7L525.6 386.7c39.6-40.6 66.4-86.1 79.9-118.4c3.3-7.9 3.3-16.7 0-24.6c-14.9-35.7-46.2-87.7-93-131.1C465.5 68.8 400.8 32 320 32c-68.2 0-125 26.3-169.3 60.8L38.8 5.1zm151 118.3C226 97.7 269.5 80 320 80c65.2 0 118.8 29.6 159.9 67.7C518.4 183.5 545 226 558.6 256c-12.6 28-36.6 66.8-70.9 100.9l-53.8-42.2c9.1-17.6 14.2-37.5 14.2-58.7c0-70.7-57.3-128-128-128c-32.2 0-61.7 11.9-84.2 31.5l-46.1-36.1zM394.9 284.2l-81.5-63.9c4.2-8.5 6.6-18.2 6.6-28.3c0-5.5-.7-10.9-2-16c.7 0 1.3 0 2 0c44.2 0 80 35.8 80 80c0 9.9-1.8 19.4-5.1 28.2zm51.3 163.3l-41.9-33C378.8 425.4 350.7 432 320 432c-65.2 0-118.8-29.6-159.9-67.7C121.6 328.5 95 286 81.4 256c8.3-18.4 21.5-41.5 39.4-64.8L83.1 161.5C60.3 191.2 44 220.8 34.5 243.7c-3.3 7.9-3.3 16.7 0 24.6c14.9 35.7 46.2 87.7 93 131.1C174.5 443.2 239.2 480 320 480c47.8 0 89.9-12.9 126.2-32.5zm-88-69.3L302 334c-23.5-5.4-43.1-21.2-53.7-42.3l-56.1-44.2c-.2 2.8-.3 5.6-.3 8.5c0 70.7 57.3 128 128 128c13.3 0 26.1-2 38.2-5.8z"/></symbol>
	<symbol id="eye" viewBox="0 0 576 512"><path d="M288 80c-65.2 0-118.8 29.6-159.9 67.7C89.6 183.5 63 226 49.4 256c13.6 30 40.2 72.5 78.6 108.3C169.2 402.4 222.8 432 288 432s118.8-29.6 159.9-67.7C486.4 328.5 513 286 526.6 256c-13.6-30-40.2-72.5-78.6-108.3C406.8 109.6 353.2 80 288 80zM95.4 112.6C142.5 68.8 207.2 32 288 32s145.5 36.8 192.6 80.6c46.8 43.5 78.1 95.4 93 131.1c3.3 7.9 3.3 16.7 0 24.6c-14.9 35.7-46.2 87.7-93 131.1C433.5 443.2 368.8 480 288 480s-145.5-36.8-192.6-80.6C48.6 356 17.3 304 2.5 268.3c-3.3-7.9-3.3-16.7 0-24.6C17.3 208 48.6 156 95.4 112.6zM288 336c44.2 0 80-35.8 80-80s-35.8-80-80-80c-.7 0-1.3 0-2 0c1.3 5.1 2 10.5 2 16c0 35.3-28.7 64-64 64c-5.5 0-10.9-.7-16-2c0 .7 0 1.3 0 2c0 44.2 35.8 80 80 80zm0-208a128 128 0 1 1 0 256 128 128 0 1 1 0-256z"/></symbol>
	<symbol id="google" viewBox="0 0 488 512"><path d="M488 261.8C488 403.3 391.1 504 248 504 110.8 504 0 393.2 0 256S110.8 8 248 8c66.8 0 123 24.5 166.3 64.9l-67.5 64.9C258.5 52.6 94.3 116.6 94.3 256c0 86.5 69.1 156.6 153.7 156.6 98.2 0 135-70.4 140.8-106.9H248v-85.3h236.1c2.3 12.7 3.9 24.9 3.9 41.4z"/></symbol>
	<symbol id="magnifying-glass" viewBox="0 0 512 512"><path d="M500.3 443.7l-119.7-119.7c27.22-40.41 40.65-90.9 33.46-144.7C401.8 87.79 326.8 13.32 235.2 1.723C99.01-15.51-15.51 99.01 1.724 235.2c11.6 91.64 86.08 166.7 177.6 178.9c53.8 7.189 104.3-6.236 144.7-33.46l119.7 119.7c15.62 15.62 40.95 15.62 56.57 0C515.9 484.7 515.9 459.3 500.3 443.7zM79.1 208c0-70.58 57.42-128 128-128s128 57.42 128 128c0 70.58-57.42 128-128 128S79.1 278.6 79.1 208z"></path></symbol>
	<symbol id="maximize" viewBox="0 0 448 512"><path d="M447.1 319.1v135.1c0 13.26-10.75 23.1-23.1 23.1h-135.1c-12.94 0-24.61-7.781-29.56-19.75c-4.906-11.1-2.203-25.72 6.937-34.87l30.06-30.06L224 323.9l-71.43 71.44l30.06 30.06c9.156 9.156 11.91 22.91 6.937 34.87C184.6 472.2 172.9 479.1 160 479.1H24c-13.25 0-23.1-10.74-23.1-23.1v-135.1c0-12.94 7.781-24.61 19.75-29.56C23.72 288.8 27.88 288 32 288c8.312 0 16.5 3.242 22.63 9.367l30.06 30.06l71.44-71.44L84.69 184.6L54.63 214.6c-9.156 9.156-22.91 11.91-34.87 6.937C7.798 216.6 .0013 204.9 .0013 191.1v-135.1c0-13.26 10.75-23.1 23.1-23.1h135.1c12.94 0 24.61 7.781 29.56 19.75C191.2 55.72 191.1 59.87 191.1 63.1c0 8.312-3.237 16.5-9.362 22.63L152.6 116.7l71.44 71.44l71.43-71.44l-30.06-30.06c-9.156-9.156-11.91-22.91-6.937-34.87c4.937-11.95 16.62-19.75 29.56-19.75h135.1c13.26 0 23.1 10.75 23.1 23.1v135.1c0 12.94-7.781 24.61-19.75 29.56c-11.1 4.906-25.72 2.203-34.87-6.937l-30.06-30.06l-71.43 71.43l71.44 71.44l30.06-30.06c9.156-9.156 22.91-11.91 34.87-6.937C440.2 295.4 447.1 307.1 447.1 319.1z"></path></symbol>
	<symbol id="message" viewBox="0 0 512 512"><path d="M160 368c26.5 0 48 21.5 48 48v16l72.5-54.4c8.3-6.2 18.4-9.6 28.8-9.6H448c8.8 0 16-7.2 16-16V64c0-8.8-7.2-16-16-16H64c-8.8 0-16 7.2-16 16V352c0 8.8 7.2 16 16 16h96zm48 124l-.2 .2-5.1 3.8-17.1 12.8c-4.8 3.6-11.3 4.2-16.8 1.5s-8.8-8.2-8.8-14.3V474.7v-6.4V468v-4V416H112 64c-35.3 0-64-28.7-64-64V64C0 28.7 28.7 0 64 0H448c35.3 0 64 28.7 64 64V352c0 35.3-28.7 64-64 64H309.3L208 492z"/></symbol>
	<symbol id="minimize" viewBox="0 0 512 512"><path d="M200 287.1H64c-12.94 0-24.62 7.797-29.56 19.75c-4.969 11.97-2.219 25.72 6.937 34.87l30.06 30.06l-62.06 62.07c-12.49 12.5-12.5 32.75-.0012 45.25l22.62 22.62c12.5 12.5 32.76 12.5 45.26 .0012l62.06-62.07l30.06 30.06c6.125 6.125 14.31 9.375 22.62 9.375c4.125 0 8.281-.7969 12.25-2.437c11.97-4.953 19.75-16.62 19.75-29.56V311.1C224 298.7 213.3 287.1 200 287.1zM312 224h135.1c12.94 0 24.62-7.797 29.56-19.75c4.969-11.97 2.219-25.72-6.937-34.87l-30.06-30.06l62.06-62.07c12.5-12.5 12.5-32.76 .0003-45.26l-22.62-22.62c-12.5-12.5-32.76-12.5-45.26-.0003l-62.06 62.07l-30.06-30.06c-9.156-9.141-22.87-11.84-34.87-6.937C295.8 39.39 288 51.06 288 64v135.1C288 213.3 298.7 224 312 224zM204.3 34.44C192.3 29.47 178.5 32.22 169.4 41.38L139.3 71.44L77.25 9.374C64.75-3.123 44.49-3.123 31.1 9.374l-22.63 22.63c-12.49 12.49-12.49 32.75 .0018 45.25l62.07 62.06L41.38 169.4C35.25 175.5 32 183.7 32 192c0 4.125 .7969 8.281 2.438 12.25C39.39 216.2 51.07 224 64 224h135.1c13.25 0 23.1-10.75 23.1-23.1V64C224 51.06 216.2 39.38 204.3 34.44zM440.6 372.7l30.06-30.06c9.141-9.156 11.84-22.88 6.938-34.87C472.6 295.8 460.9 287.1 448 287.1h-135.1c-13.25 0-23.1 10.75-23.1 23.1v135.1c0 12.94 7.797 24.62 19.75 29.56c11.97 4.969 25.72 2.219 34.87-6.937l30.06-30.06l62.06 62.06c12.5 12.5 32.76 12.5 45.26 .0002l22.62-22.62c12.5-12.5 12.5-32.76 .0002-45.26L440.6 372.7z"></path></symbol>
	<symbol id="moon-stars" viewBox="0 0 24 24"><path d="M12 3c.132 0 .263 0 .393 0a7.5 7.5 0 0 0 7.92 12.446a9 9 0 1 1 -8.313 -12.454z" /><path d="M17 4a2 2 0 0 0 2 2a2 2 0 0 0 -2 2a2 2 0 0 0 -2 -2a2 2 0 0 0 2 -2" /><path d="M19 11h2m-1 -1v2" /></symbol>
	<symbol id="pencil" viewBox="0 0 512 512"><path d="M410.3 231l11.3-11.3-33.9-33.9-62.1-62.1L291.7 89.8l-11.3 11.3-22.6 22.6L58.6 322.9c-10.4 10.4-18 23.3-22.2 37.4L1 480.7c-2.5 8.4-.2 17.5 6.1 23.7s15.3 8.5 23.7 6.1l120.3-35.4c14.1-4.2 27-11.8 37.4-22.2L387.7 253.7 410.3 231zM160 399.4l-9.1 22.7c-4 3.1-8.5 5.4-13.3 6.9L59.4 452l23-78.1c1.4-4.9 3.8-9.4 6.9-13.3l22.7-9.1v32c0 8.8 7.2 16 16 16h32zM362.7 18.7L348.3 33.2 325.7 55.8 314.3 67.1l33.9 33.9 62.1 62.1 33.9 33.9 11.3-11.3 22.6-22.6 14.5-14.5c25-25 25-65.5 0-90.5L453.3 18.7c-25-25-65.5-25-90.5 0zm-47.4 168l-144 144c-6.2 6.2-16.4 6.2-22.6 0s-6.2-16.4 0-22.6l144-144c6.2-6.2 16.4-6.2 22.6 0s6.2 16.4 0 22.6z"/></symbol>
	<symbol id="right-from-bracket" viewBox="0 0 512 512"><path d="M96 480h64C177.7 480 192 465.7 192 448S177.7 416 160 416H96c-17.67 0-32-14.33-32-32V128c0-17.67 14.33-32 32-32h64C177.7 96 192 81.67 192 64S177.7 32 160 32H96C42.98 32 0 74.98 0 128v256C0 437 42.98 480 96 480zM504.8 238.5l-144.1-136c-6.975-6.578-17.2-8.375-26-4.594c-8.803 3.797-14.51 12.47-14.51 22.05l-.0918 72l-128-.001c-17.69 0-32.02 14.33-32.02 32v64c0 17.67 14.34 32 32.02 32l128 .001l.0918 71.1c0 9.578 5.707 18.25 14.51 22.05c8.803 3.781 19.03 1.984 26-4.594l144.1-136C514.4 264.4 514.4 247.6 504.8 238.5z"></path></symbol>
	<symbol id="right-to-bracket" viewBox="0 0 512 512"><path d="M344.7 238.5l-144.1-136C193.7 95.97 183.4 94.17 174.6 97.95C165.8 101.8 160.1 110.4 160.1 120V192H32.02C14.33 192 0 206.3 0 224v64c0 17.68 14.33 32 32.02 32h128.1v72c0 9.578 5.707 18.25 14.51 22.05c8.803 3.781 19.03 1.984 26-4.594l144.1-136C354.3 264.4 354.3 247.6 344.7 238.5zM416 32h-64c-17.67 0-32 14.33-32 32s14.33 32 32 32h64c17.67 0 32 14.33 32 32v256c0 17.67-14.33 32-32 32h-64c-17.67 0-32 14.33-32 32s14.33 32 32 32h64c53.02 0 96-42.98 96-96V128C512 74.98 469 32 416 32z"></path></symbol>
	<symbol id="rotate" viewBox="0 0 512 512"><path d="M449.9 39.96l-48.5 48.53C362.5 53.19 311.4 32 256 32C161.5 32 78.59 92.34 49.58 182.2c-5.438 16.81 3.797 34.88 20.61 40.28c16.97 5.5 34.86-3.812 40.3-20.59C130.9 138.5 189.4 96 256 96c37.96 0 73 14.18 100.2 37.8L311.1 178C295.1 194.8 306.8 223.4 330.4 224h146.9C487.7 223.7 496 215.3 496 204.9V59.04C496 34.99 466.9 22.95 449.9 39.96zM441.8 289.6c-16.94-5.438-34.88 3.812-40.3 20.59C381.1 373.5 322.6 416 256 416c-37.96 0-73-14.18-100.2-37.8L200 334C216.9 317.2 205.2 288.6 181.6 288H34.66C24.32 288.3 16 296.7 16 307.1v145.9c0 24.04 29.07 36.08 46.07 19.07l48.5-48.53C149.5 458.8 200.6 480 255.1 480c94.45 0 177.4-60.34 206.4-150.2C467.9 313 458.6 294.1 441.8 289.6z"></path></symbol>
	<symbol id="spinner" viewBox="0 0 512 512"><path d="M304 48C304 74.51 282.5 96 256 96C229.5 96 208 74.51 208 48C208 21.49 229.5 0 256 0C282.5 0 304 21.49 304 48zM304 464C304 490.5 282.5 512 256 512C229.5 512 208 490.5 208 464C208 437.5 229.5 416 256 416C282.5 416 304 437.5 304 464zM0 256C0 229.5 21.49 208 48 208C74.51 208 96 229.5 96 256C96 282.5 74.51 304 48 304C21.49 304 0 282.5 0 256zM512 256C512 282.5 490.5 304 464 304C437.5 304 416 282.5 416 256C416 229.5 437.5 208 464 208C490.5 208 512 229.5 512 256zM74.98 437C56.23 418.3 56.23 387.9 74.98 369.1C93.73 350.4 124.1 350.4 142.9 369.1C161.6 387.9 161.6 418.3 142.9 437C124.1 455.8 93.73 455.8 74.98 437V437zM142.9 142.9C124.1 161.6 93.73 161.6 74.98 142.9C56.24 124.1 56.24 93.73 74.98 74.98C93.73 56.23 124.1 56.23 142.9 74.98C161.6 93.73 161.6 124.1 142.9 142.9zM369.1 369.1C387.9 350.4 418.3 350.4 437 369.1C455.8 387.9 455.8 418.3 437 437C418.3 455.8 387.9 455.8 369.1 437C350.4 418.3 350.4 387.9 369.1 369.1V369.1z"></path></symbol>
	<symbol id="star" viewBox="0 0 576 512"><path d="M316.9 18C311.6 7 300.4 0 288.1 0s-23.4 7-28.8 18L195 150.3 51.4 171.5c-12 1.8-22 10.2-25.7 21.7s-.7 24.2 7.9 32.7L137.8 329 113.2 474.7c-2 12 3 24.2 12.9 31.3s23 8 33.8 2.3l128.3-68.5 128.3 68.5c10.8 5.7 23.9 4.9 33.8-2.3s14.9-19.3 12.9-31.3L438.5 329 542.7 225.9c8.6-8.5 11.7-21.2 7.9-32.7s-13.7-19.9-25.7-21.7L381.2 150.3 316.9 18z"/></symbol>
	<symbol id="sun" viewBox="0 0 24 24"><path stroke="none" d="M0 0h24v24H0z" fill="none"/><path d="M12 19a1 1 0 0 1 .993 .883l.007 .117v1a1 1 0 0 1 -1.993 .117l-.007 -.117v-1a1 1 0 0 1 1 -1z" /><path d="M18.313 16.91l.094 .083l.7 .7a1 1 0 0 1 -1.32 1.497l-.094 -.083l-.7 -.7a1 1 0 0 1 1.218 -1.567l.102 .07z" /><path d="M7.007 16.993a1 1 0 0 1 .083 1.32l-.083 .094l-.7 .7a1 1 0 0 1 -1.497 -1.32l.083 -.094l.7 -.7a1 1 0 0 1 1.414 0z" /><path d="M4 11a1 1 0 0 1 .117 1.993l-.117 .007h-1a1 1 0 0 1 -.117 -1.993l.117 -.007h1z" /><path d="M21 11a1 1 0 0 1 .117 1.993l-.117 .007h-1a1 1 0 0 1 -.117 -1.993l.117 -.007h1z" /><path d="M6.213 4.81l.094 .083l.7 .7a1 1 0 0 1 -1.32 1.497l-.094 -.083l-.7 -.7a1 1 0 0 1 1.217 -1.567l.102 .07z" /><path d="M19.107 4.893a1 1 0 0 1 .083 1.32l-.083 .094l-.7 .7a1 1 0 0 1 -1.497 -1.32l.083 -.094l.7 -.7a1 1 0 0 1 1.414 0z" /><path d="M12 2a1 1 0 0 1 .993 .883l.007 .117v1a1 1 0 0 1 -1.993 .117l-.007 -.117v-1a1 1 0 0 1 1 -1z" /><path d="M12 7a5 5 0 1 1 -4.995 5.217l-.005 -.217l.005 -.217a5 5 0 0 1 4.995 -4.783z" /></symbol>
	<symbol id="thumbs-down" viewBox="0 0 512 512"><path d="M96 32.04H32c-17.67 0-32 14.32-32 31.1v223.1c0 17.67 14.33 31.1 32 31.1h64c17.67 0 32-14.33 32-31.1V64.03C128 46.36 113.7 32.04 96 32.04zM467.3 240.2C475.1 231.7 480 220.4 480 207.9c0-23.47-16.87-42.92-39.14-47.09C445.3 153.6 448 145.1 448 135.1c0-21.32-14-39.18-33.25-45.43C415.5 87.12 416 83.61 416 79.98C416 53.47 394.5 32 368 32h-58.69c-34.61 0-68.28 11.22-95.97 31.98L179.2 89.57C167.1 98.63 160 112.9 160 127.1l.1074 160c0 0-.0234-.0234 0 0c.0703 13.99 6.123 27.94 17.91 37.36l16.3 13.03C276.2 403.9 239.4 480 302.5 480c30.96 0 49.47-24.52 49.47-48.11c0-15.15-11.76-58.12-34.52-96.02H464c26.52 0 48-21.47 48-47.98C512 262.5 492.2 241.9 467.3 240.2z"></path></symbol>
	<symbol id="thumbs-up" viewBox="0 0 512 512"><path d="M128 447.1V223.1c0-17.67-14.33-31.1-32-31.1H32c-17.67 0-32 14.33-32 31.1v223.1c0 17.67 14.33 31.1 32 31.1h64C113.7 479.1 128 465.6 128 447.1zM512 224.1c0-26.5-21.48-47.98-48-47.98h-146.5c22.77-37.91 34.52-80.88 34.52-96.02C352 56.52 333.5 32 302.5 32c-63.13 0-26.36 76.15-108.2 141.6L178 186.6C166.2 196.1 160.2 210 160.1 224c-.0234 .0234 0 0 0 0L160 384c0 15.1 7.113 29.33 19.2 38.39l34.14 25.59C241 468.8 274.7 480 309.3 480H368c26.52 0 48-21.47 48-47.98c0-3.635-.4805-7.143-1.246-10.55C434 415.2 448 397.4 448 376c0-9.148-2.697-17.61-7.139-24.88C463.1 347 480 327.5 480 304.1c0-12.5-4.893-23.78-12.72-32.32C492.2 270.1 512 249.5 512 224.1z"></path></symbol>
	<symbol id="trash-can-arrow-up" viewBox="0 0 448 512"><path d="M163.8 0H284.2c12.1 0 23.2 6.8 28.6 17.7L320 32h96c17.7 0 32 14.3 32 32s-14.3 32-32 32H32C14.3 96 0 81.7 0 64S14.3 32 32 32h96l7.2-14.3C140.6 6.8 151.7 0 163.8 0zM32 128H416V448c0 35.3-28.7 64-64 64H96c-35.3 0-64-28.7-64-64V128zm192 64c-6.4 0-12.5 2.5-17 7l-80 80c-9.4 9.4-9.4 24.6 0 33.9s24.6 9.4 33.9 0l39-39V408c0 13.3 10.7 24 24 24s24-10.7 24-24V273.9l39 39c9.4 9.4 24.6 9.4 33.9 0s9.4-24.6 0-33.9l-80-80c-4.5-4.5-10.6-7-17-7z"/></symbol>
	<symbol id="trash-can" viewBox="0 0 448 512"><path d="M135.2 17.7C140.6 6.8 151.7 0 163.8 0H284.2c12.1 0 23.2 6.8 28.6 17.7L320 32h96c17.7 0 32 14.3 32 32s-14.3 32-32 32H32C14.3 96 0 81.7 0 64S14.3 32 32 32h96l7.2-14.3zM32 128H416V448c0 35.3-28.7 64-64 64H96c-35.3 0-64-28.7-64-64V128zm96 64c-8.8 0-16 7.2-16 16V432c0 8.8 7.2 16 16 16s16-7.2 16-16V208c0-8.8-7.2-16-16-16zm96 0c-8.8 0-16 7.2-16 16V432c0 8.8 7.2 16 16 16s16-7.2 16-16V208c0-8.8-7.2-16-16-16zm96 0c-8.8 0-16 7.2-16 16V432c0 8.8 7.2 16 16 16s16-7.2 16-16V208c0-8.8-7.2-16-16-16z"/></symbol>
	<symbol id="up-right-and-down-left-from-center" viewBox="0 0 512 512"><path d="M208 281.4c-12.5-12.5-32.76-12.5-45.26-.002l-78.06 78.07l-30.06-30.06c-6.125-6.125-14.31-9.367-22.63-9.367c-4.125 0-8.279 .7891-12.25 2.43c-11.97 4.953-19.75 16.62-19.75 29.56v135.1C.0013 501.3 10.75 512 24 512h136c12.94 0 24.63-7.797 29.56-19.75c4.969-11.97 2.219-25.72-6.938-34.87l-30.06-30.06l78.06-78.07c12.5-12.49 12.5-32.75 .002-45.25L208 281.4zM487.1 0h-136c-12.94 0-24.63 7.797-29.56 19.75c-4.969 11.97-2.219 25.72 6.938 34.87l30.06 30.06l-78.06 78.07c-12.5 12.5-12.5 32.76 0 45.26l22.62 22.62c12.5 12.5 32.76 12.5 45.26 0l78.06-78.07l30.06 30.06c9.156 9.141 22.87 11.84 34.87 6.937C504.2 184.6 512 172.9 512 159.1V23.1C512 10.74 501.3 0 487.1 0z"></path></symbol>
	<symbol id="user" viewBox="0 0 448 512"><path d="M224 256c70.7 0 128-57.31 128-128s-57.3-128-128-128C153.3 0 96 57.31 96 128S153.3 256 224 256zM274.7 304H173.3C77.61 304 0 381.6 0 477.3c0 19.14 15.52 34.67 34.66 34.67h378.7C432.5 512 448 496.5 448 477.3C448 381.6 370.4 304 274.7 304z"></path></symbol>
	<symbol id="xmark" viewBox="0 0 320 512"><path d="M310.6 150.6c12.5-12.5 12.5-32.8 0-45.3s-32.8-12.5-45.3 0L160 210.7 54.6 105.4c-12.5-12.5-32.8-12.5-45.3 0s-12.5 32.8 0 45.3L114.7 256 9.4 361.4c-12.5 12.5-12.5 32.8 0 45.3s32.8 12.5 45.3 0L160 301.3 265.4 406.6c12.5 12.5 32.8 12.5 45.3 0s12.5-32.8 0-45.3L205.3 256 310.6 150.6z"></path></symbol>
</svg>
